<svg xmlns="http://www.w3.org/2000/svg" version="1.1" xmlns:xlink="http://www.w3.org/1999/xlink" xmlns:svgjs="http://svgjs.dev/svgjs" width="1000" height="1000"><style>
    #light-icon {
      display: inline;
    }
    #dark-icon {
      display: none;
    }

    @media (prefers-color-scheme: dark) {
      #light-icon {
        display: none;
      }
      #dark-icon {
        display: inline;
      }
    }
  </style><g id="light-icon"><svg xmlns="http://www.w3.org/2000/svg" version="1.1" xmlns:xlink="http://www.w3.org/1999/xlink" xmlns:svgjs="http://svgjs.dev/svgjs" width="1000" height="1000"><g clip-path="url(#SvgjsClipPath1948)"><rect width="1000" height="1000" fill="#ffffff"></rect><g transform="matrix(21.05263157894737,0,0,21.05263157894737,100,100)"><svg xmlns="http://www.w3.org/2000/svg" version="1.1" xmlns:xlink="http://www.w3.org/1999/xlink" xmlns:svgjs="http://svgjs.dev/svgjs" width="38" height="38"><svg fill="none" height="38" viewBox="0 0 38 38" width="38" xmlns="http://www.w3.org/2000/svg">
    <path d="M7 15C7 10.5817 10.5817 7 15 7H23C27.4183 7 31 10.5817 31 15V23C31 27.4183 27.4183 31 23 31H15C10.5817 31 7 27.4183 7 23V15Z" data-testid="main-icon-path-1" fill="rgb(232, 176, 89)"></path>
    <rect fill="rgb(232, 176, 89)" height="11" rx="3.5" stroke="white" width="11" x="1.5" y="1.5"></rect>
    <rect fill="rgb(232, 176, 89)" height="11" rx="3.5" stroke="white" width="11" x="25.5" y="25.5"></rect>
    <path d="M5 25.5H9C10.933 25.5 12.5 27.067 12.5 29V33C12.5 34.933 10.933 36.5 9 36.5H5C3.067 36.5 1.5 34.933 1.5 33V29C1.5 27.067 3.067 25.5 5 25.5Z" data-testid="main-icon-path-2" fill="rgb(232, 176, 89)"></path>
</svg></svg></g></g><defs><clipPath id="SvgjsClipPath1948"><rect width="1000" height="1000" x="0" y="0" rx="150" ry="150"></rect></clipPath></defs></svg></g><g id="dark-icon"><svg xmlns="http://www.w3.org/2000/svg" version="1.1" xmlns:xlink="http://www.w3.org/1999/xlink" xmlns:svgjs="http://svgjs.dev/svgjs" width="1000" height="1000"><g clip-path="url(#SvgjsClipPath1949)"><rect width="1000" height="1000" fill="#3a3a3a"></rect><g transform="matrix(21.05263157894737,0,0,21.05263157894737,100,100)"><svg xmlns="http://www.w3.org/2000/svg" version="1.1" xmlns:xlink="http://www.w3.org/1999/xlink" xmlns:svgjs="http://svgjs.dev/svgjs" width="38" height="38"><svg fill="none" height="38" viewBox="0 0 38 38" width="38" xmlns="http://www.w3.org/2000/svg">
    <path d="M7 15C7 10.5817 10.5817 7 15 7H23C27.4183 7 31 10.5817 31 15V23C31 27.4183 27.4183 31 23 31H15C10.5817 31 7 27.4183 7 23V15Z" data-testid="main-icon-path-1" fill="rgb(232, 176, 89)"></path>
    <rect fill="rgb(232, 176, 89)" height="11" rx="3.5" stroke="white" width="11" x="1.5" y="1.5"></rect>
    <rect fill="rgb(232, 176, 89)" height="11" rx="3.5" stroke="white" width="11" x="25.5" y="25.5"></rect>
    <path d="M5 25.5H9C10.933 25.5 12.5 27.067 12.5 29V33C12.5 34.933 10.933 36.5 9 36.5H5C3.067 36.5 1.5 34.933 1.5 33V29C1.5 27.067 3.067 25.5 5 25.5Z" data-testid="main-icon-path-2" fill="rgb(232, 176, 89)"></path>
</svg></svg></g></g><defs><clipPath id="SvgjsClipPath1949"><rect width="1000" height="1000" x="0" y="0" rx="350" ry="350"></rect></clipPath></defs></svg></g></svg>